<svg xmlns="http://www.w3.org/2000/svg" xmlns:svg="http://www.w3.org/2000/svg" id="svg1" width="340.16" height="340.16" viewBox="0 0 340.16 340.16"><defs id="defs1"><linearGradient x1="0" y1="0" x2="1" y2="0" gradientUnits="userSpaceOnUse" gradientTransform="matrix(513.416,513.416,513.416,-513.416,412.563,956.25)" spreadMethod="pad" id="linearGradient8"><stop style="stop-opacity:1;stop-color:#eac86c" offset="0" id="stop2"/><stop style="stop-opacity:1;stop-color:#e1b645" offset=".182879" id="stop3"/><stop style="stop-opacity:1;stop-color:#fbfbc7" offset=".469919" id="stop4"/><stop style="stop-opacity:1;stop-color:#deb53d" offset=".565529" id="stop5"/><stop style="stop-opacity:1;stop-color:#f2c653" offset=".702255" id="stop6"/><stop style="stop-opacity:1;stop-color:#cb9c18" offset=".882783" id="stop7"/><stop style="stop-opacity:1;stop-color:#bc9328" offset="1" id="stop8"/></linearGradient><clipPath id="clipPath8"><path d="m448.953 941.172h440.633c28.426.0 51.469 23.047 51.469 51.469v440.629c0 28.43-23.043 51.47-51.469 51.47H448.953c-28.422.0-51.465-23.04-51.465-51.47V992.641c0-28.422 23.043-51.469 51.465-51.469z" id="path8"/></clipPath><linearGradient x1="0" y1="0" x2="1" y2="0" gradientUnits="userSpaceOnUse" gradientTransform="matrix(243.025,243.025,243.025,-243.025,642.89,1292.76)" spreadMethod="pad" id="linearGradient16"><stop style="stop-opacity:1;stop-color:#e1b645" offset="0" id="stop10"/><stop style="stop-opacity:1;stop-color:#e1b645" offset="0" id="stop11"/><stop style="stop-opacity:1;stop-color:#fbfbc7" offset=".227907" id="stop12"/><stop style="stop-opacity:1;stop-color:#deb53d" offset=".413953" id="stop13"/><stop style="stop-opacity:1;stop-color:#cb9c18" offset=".772093" id="stop14"/><stop style="stop-opacity:1;stop-color:#f2c653" offset="1" id="stop15"/><stop style="stop-opacity:1;stop-color:#f2c653" offset="1" id="stop16"/></linearGradient><clipPath id="clipPath16"><path d="m784.109 1441.87v-72.33c0-8.57-6.949-15.52-15.523-15.52h-8.981c-8.726.0-15.804 7.07-15.804 15.8v70.93c0 22.38-18.149 40.53-40.531 40.53H587.492v-112.87c0-27 21.895-48.9 48.899-48.9h258.183c25.321.0 45.844 20.53 45.844 45.85v115.92H823.523c-21.769.0-39.414-17.65-39.414-39.41z" id="path16"/></clipPath><linearGradient x1="0" y1="0" x2="1" y2="0" gradientUnits="userSpaceOnUse" gradientTransform="matrix(243.92,243.92,243.92,-243.92,641.995,1100.71)" spreadMethod="pad" id="linearGradient23"><stop style="stop-opacity:1;stop-color:#e1b645" offset="0" id="stop17"/><stop style="stop-opacity:1;stop-color:#e1b645" offset="0" id="stop18"/><stop style="stop-opacity:1;stop-color:#fbfbc7" offset=".227907" id="stop19"/><stop style="stop-opacity:1;stop-color:#deb53d" offset=".413953" id="stop20"/><stop style="stop-opacity:1;stop-color:#cb9c18" offset=".772093" id="stop21"/><stop style="stop-opacity:1;stop-color:#f2c653" offset="1" id="stop22"/><stop style="stop-opacity:1;stop-color:#f2c653" offset="1" id="stop23"/></linearGradient><clipPath id="clipPath23"><path d="m818.316 1269.46-54.363-54.34-54.359 54.34c-13.242 13.23-31.196 20.66-49.914 20.66H587.492V1174.2c0-25.32 20.524-45.85 45.844-45.85h110.465v56.76l20.152-20.14 20.156 20.14v-56.76h110.465c25.321.0 45.844 20.53 45.844 45.85v115.92H868.23c-18.718.0-36.671-7.43-49.914-20.66z" id="path23"/></clipPath></defs><g id="g1"><g id="group-R5"><path id="path2" d="m448.953 941.172h440.633c28.426.0 51.469 23.047 51.469 51.469v440.629c0 28.43-23.043 51.47-51.469 51.47H448.953c-28.422.0-51.465-23.04-51.465-51.47V992.641c0-28.422 23.043-51.469 51.465-51.469" style="fill:url(#linearGradient8);fill-opacity:1;fill-rule:nonzero;stroke:none" transform="matrix(0.13333333,0,0,-0.13333333,0,340.16)" clip-path="url(#clipPath8)"/><path id="path9" d="M543.641 1033.04H984.27c28.42.0 51.47 23.04 51.47 51.46v440.63c0 28.43-23.05 51.47-51.47 51.47H543.641c-28.426.0-51.469-23.04-51.469-51.47V1084.5c0-28.42 23.043-51.46 51.469-51.46" style="fill:#070604;fill-opacity:1;fill-rule:nonzero;stroke:none" transform="matrix(0.13333333,0,0,-0.13333333,0,340.16)"/><path id="path10" d="m784.109 1441.87v-72.33c0-8.57-6.949-15.52-15.523-15.52h-8.981c-8.726.0-15.804 7.07-15.804 15.8v70.93c0 22.38-18.149 40.53-40.531 40.53H587.492v-112.87c0-27 21.895-48.9 48.899-48.9h258.183c25.321.0 45.844 20.53 45.844 45.85v115.92H823.523c-21.769.0-39.414-17.65-39.414-39.41" style="fill:url(#linearGradient16);fill-opacity:1;fill-rule:nonzero;stroke:none" transform="matrix(0.13333333,0,0,-0.13333333,0,340.16)" clip-path="url(#clipPath16)"/><path id="path17" d="m818.316 1269.46-54.363-54.34-54.359 54.34c-13.242 13.23-31.196 20.66-49.914 20.66H587.492V1174.2c0-25.32 20.524-45.85 45.844-45.85h110.465v56.76l20.152-20.14 20.156 20.14v-56.76h110.465c25.321.0 45.844 20.53 45.844 45.85v115.92H868.23c-18.718.0-36.671-7.43-49.914-20.66" style="fill:url(#linearGradient23);fill-opacity:1;fill-rule:nonzero;stroke:none" transform="matrix(0.13333333,0,0,-0.13333333,0,340.16)" clip-path="url(#clipPath23)"/><path id="path24" d="m1143.98 1342.1c-5.75 3.39-10.31 7.97-13.71 13.71s-5.1 12.02-5.1 18.8v157.57h37.62v-155.74c0-.35.17-.7.52-1.04.35-.35.69-.53 1.04-.53h109.18c.34.0.69.18 1.04.53.35.34.52.69.52 1.04v155.74h38.14v-157.57c0-6.78-1.75-13.06-5.23-18.8s-8.05-10.32-13.71-13.71c-5.66-3.4-11.88-5.1-18.67-5.1h-112.83c-6.8.0-13.06 1.7-18.81 5.1" style="fill:#231f20;fill-opacity:1;fill-rule:nonzero;stroke:none" transform="matrix(0.13333333,0,0,-0.13333333,0,340.16)"/><path id="path25" d="m1341.43 1337v158.61h116.75c6.79.0 12.97-1.69 18.54-5.09 5.57-3.39 10.01-7.88 13.32-13.45s4.97-11.67 4.97-18.28V1337h-37.09v119.96c0 .35-.18.7-.52 1.04-.36.35-.7.53-1.05.53h-76.26c-.36.0-.7-.18-1.05-.53-.35-.34-.52-.69-.52-1.04V1337h-37.09" style="fill:#231f20;fill-opacity:1;fill-rule:nonzero;stroke:none" transform="matrix(0.13333333,0,0,-0.13333333,0,340.16)"/><path id="path26" d="m1522.69 1337v158.61h37.09V1337zm0 170.89v37.35h37.09v-37.35h-37.09" style="fill:#231f20;fill-opacity:1;fill-rule:nonzero;stroke:none" transform="matrix(0.13333333,0,0,-0.13333333,0,340.16)"/><path id="path27" d="m1879.96 1072.88v195.5h37.08v-195.5h-37.08" style="fill:#231f20;fill-opacity:1;fill-rule:nonzero;stroke:none" transform="matrix(0.13333333,0,0,-0.13333333,0,340.16)"/><path id="path28" d="m1779.43 1342.1c-5.58 3.39-10.02 7.87-13.32 13.45-3.31 5.57-4.96 11.66-4.96 18.28v121.78h37.08v-119.96c0-.34.18-.69.53-1.04.34-.35.69-.52 1.04-.52h76.27c.34.0.69.17 1.04.52s.52.7.52 1.04v119.96h37.09v-121.78c0-6.62-1.65-12.71-4.96-18.28-3.31-5.58-7.75-10.06-13.32-13.45-5.58-3.4-11.75-5.1-18.55-5.1h-79.92c-6.79.0-12.97 1.7-18.54 5.1" style="fill:#231f20;fill-opacity:1;fill-rule:nonzero;stroke:none" transform="matrix(0.13333333,0,0,-0.13333333,0,340.16)"/><path id="path29" d="m1125.7 1073.47v195.18h39.96l65.82-78.62 65.55 78.62h40.22v-195.18h-37.87v139.02l-67.9-81.22-68.17 80.96v-138.76h-37.61" style="fill:#231f20;fill-opacity:1;fill-rule:nonzero;stroke:none" transform="matrix(0.13333333,0,0,-0.13333333,0,340.16)"/><path id="path30" d="m1539.67 1073.47v121.79c0 6.61 1.7 12.7 5.1 18.28 3.39 5.57 7.87 10.05 13.44 13.45 5.57 3.4 11.76 5.09 18.55 5.09h105.22v-37.09h-103.65c-.36.0-.7-.17-1.05-.52s-.52-.7-.52-1.04v-119.96h-37.09" style="fill:#231f20;fill-opacity:1;fill-rule:nonzero;stroke:none" transform="matrix(0.13333333,0,0,-0.13333333,0,340.16)"/><path id="path31" d="m1621.32 1495.41c-6.79.0-12.97-1.7-18.54-5.09-5.58-3.4-10.02-7.88-13.33-13.46-3.3-5.56-4.96-11.66-4.96-18.28v-84.96c0-6.61 1.66-12.7 4.96-18.28 3.31-5.57 7.75-10.05 13.33-13.45 5.57-3.4 11.75-5.09 18.54-5.09h63.06v37.09h-61.23c-.35.0-.7.17-1.05.52s-.52.7-.52 1.04v81.31c0 .35.17.69.52 1.04s.7.52 1.05.52h76.26c.35.0.7-.17 1.05-.52s.52-.69.52-1.04v-163.38h37.09v175.22c0 14.81-12.01 26.81-26.82 26.81h-89.93" style="fill:#231f20;fill-opacity:1;fill-rule:nonzero;stroke:none" transform="matrix(0.13333333,0,0,-0.13333333,0,340.16)"/><path id="path32" d="m1513.29 1213.54c-3.31 5.57-7.75 10.06-13.32 13.45-5.57 3.4-11.75 5.09-18.54 5.09h-116.75v-37.09h114.92c.35.0.69-.17 1.05-.52.34-.35.52-.7.52-1.04v-82.87h-77.83c-.36.0-.7.17-1.05.52s-.52.69-.52 1.04v29.86h62.74v33.16h-99.83v-64.84c0-6.62 1.65-12.72 4.96-18.28 3.31-5.58 7.75-10.06 13.32-13.46 5.57-3.39 11.76-5.09 18.55-5.09h116.75v121.79c0 6.61-1.66 12.7-4.97 18.28" style="fill:#231f20;fill-opacity:1;fill-rule:nonzero;stroke:none" transform="matrix(0.13333333,0,0,-0.13333333,0,340.16)"/><path id="path33" d="m2094.67 1130.41v64.85c0 6.61-1.66 12.7-4.96 18.28-3.32 5.57-7.76 10.06-13.32 13.45-5.58 3.4-11.76 5.09-18.55 5.09h-79.92c-6.62.0-12.71-1.69-18.28-5.09-5.58-3.39-10.06-7.88-13.45-13.45-3.4-5.58-5.1-11.67-5.1-18.28v-84.96c0-6.62 1.7-12.72 5.1-18.28 3.39-5.58 7.87-10.06 13.45-13.46 5.57-3.39 11.66-5.09 18.28-5.09h116.75v37.09h-114.92c-.35.0-.7.17-1.04.52-.36.35-.53.69-.53 1.04v81.31c0 .34.17.69.53 1.04.34.35.69.52 1.04.52h76.27c.34.0.68-.17 1.04-.52.35-.35.52-.7.52-1.04v-29.85h-63.16v-33.17h100.25" style="fill:#231f20;fill-opacity:1;fill-rule:nonzero;stroke:none" transform="matrix(0.13333333,0,0,-0.13333333,0,340.16)"/><path id="path34" d="m2094.67 1393.83v64.85c0 6.61-1.66 12.7-4.96 18.28-3.32 5.57-7.76 10.05-13.32 13.45-5.58 3.4-11.76 5.09-18.55 5.09h-79.92c-6.62.0-12.71-1.69-18.28-5.09-5.58-3.4-10.06-7.88-13.45-13.45-3.4-5.58-5.1-11.67-5.1-18.28v-84.96c0-6.62 1.7-12.72 5.1-18.28 3.39-5.58 7.87-10.06 13.45-13.46 5.57-3.39 11.66-5.09 18.28-5.09h116.75v37.09h-114.92c-.35.0-.7.17-1.04.52-.36.35-.53.69-.53 1.04v81.31c0 .34.17.69.53 1.04.34.35.69.52 1.04.52h76.27c.34.0.68-.17 1.04-.52.35-.35.52-.7.52-1.04V1427h-63.16v-33.17h100.25" style="fill:#231f20;fill-opacity:1;fill-rule:nonzero;stroke:none" transform="matrix(0.13333333,0,0,-0.13333333,0,340.16)"/><path id="path35" d="m2103.42 1559.74h44.93v44.92h-44.93zm50.27-5.35h-55.62V1610h55.62v-55.61" style="fill:#231f20;fill-opacity:1;fill-rule:nonzero;stroke:none" transform="matrix(0.13333333,0,0,-0.13333333,0,340.16)"/><path id="path36" d="m2133.04 1566.46-10.33 12.35h6.48l9.63-11.43v-.92zm-13.33 16.81h13.19c.31.0.57.1.78.32.22.21.32.47.32.78v8.99c0 .31-.1.58-.32.81-.21.22-.47.34-.78.34h-13.19c-.3.0-.57-.12-.8-.34-.23-.23-.34-.5-.34-.81v-8.99c0-.31.11-.57.34-.78.23-.22.5-.32.8-.32zm-6.1-16.81v33.01H2133c1.1.0 2.11-.28 3.03-.83.91-.55 1.64-1.27 2.17-2.18.54-.9.81-1.89.81-2.96v-9.27c0-1.1-.27-2.1-.81-3.01-.53-.9-1.26-1.62-2.17-2.15-.92-.54-1.93-.81-3.03-.81l-14.43-.04v-11.76h-4.96" style="fill:#231f20;fill-opacity:1;fill-rule:nonzero;stroke:none" transform="matrix(0.13333333,0,0,-0.13333333,0,340.16)"/><path id="path37" d="m1849.39 1213.54c-3.31 5.57-7.75 10.06-13.33 13.45-5.57 3.4-11.75 5.09-18.54 5.09h-63.45v-37.09h61.63c.34.0.69-.17 1.04-.52s.52-.7.52-1.04v-81.31c0-.35-.17-.69-.52-1.04s-.7-.52-1.04-.52h-76.27c-.35.0-.7.17-1.04.52-.36.35-.53.69-.53 1.04v156.26h-37.09v-165.41c0-16.29 13.21-29.5 29.5-29.5h87.25c6.79.0 12.97 1.7 18.54 5.09 5.58 3.4 10.02 7.88 13.33 13.46 3.3 5.56 4.96 11.66 4.96 18.28v84.96c0 6.61-1.66 12.7-4.96 18.28" style="fill:#231f20;fill-opacity:1;fill-rule:nonzero;stroke:none" transform="matrix(0.13333333,0,0,-0.13333333,0,340.16)"/></g></g></svg>
